<?xml version="1.0" encoding="utf-8"?>
<!-- Generator: Adobe Illustrator 24.2.1, SVG Export Plug-In . SVG Version: 6.00 Build 0)  -->
<svg version="1.1" xmlns="http://www.w3.org/2000/svg" xmlns:xlink="http://www.w3.org/1999/xlink" x="0px" y="0px"
	 viewBox="0 0 1234 698" style="enable-background:new 0 0 1234 698;" xml:space="preserve">
<style type="text/css">
	.st0{fill:url(#SVGID_1_);}
	.st1{fill:#38B000;}
	.st2{fill-rule:evenodd;clip-rule:evenodd;fill:none;stroke:#38B000;stroke-width:3;stroke-miterlimit:10;}
	.st3{fill-rule:evenodd;clip-rule:evenodd;fill:#70E000;}
	.st4{fill-rule:evenodd;clip-rule:evenodd;fill:#38B000;}
</style>
<g id="Calque_1">
	
		<linearGradient id="SVGID_1_" gradientUnits="userSpaceOnUse" x1="612" y1="424.8855" x2="612" y2="81.1178" gradientTransform="matrix(1 0 0 -1 5 705.0744)">
		<stop  offset="0" style="stop-color:#70E000"/>
		<stop  offset="1" style="stop-color:#38B000"/>
	</linearGradient>
	<path class="st0" d="M346.56,469.16h-34.92l7.4,17.89L258.3,622.5h40.99l5.33-13.01l59.23-11.25l10.44,24.26h40.97L346.56,469.16z
		 M319.66,573.09h-0.2l16.44-40.1l14.81,34.21L319.66,573.09z M575.81,280.19v153.34h-39.22v-78.04l-34.35,40.8h-2.86l-34.16-40.8
		v78.04h-39.49V280.19h23.03L501,346.13l53.41-65.94L575.81,280.19z M1234,280.19l-16.09,35.91h-49.8v145.86l-40.23,7.18V316.12
		h-51.68l7.26,17.92v99.49h-40.15v-63.16l-51.68,9.87v53.28h-40.08V280.19h40.08v64.93l51.68-9.87v-55.06H1234z M699.16,469.14
		v35.93h-45.73V622.5h-40.28V505.07h-38.33l-16.12-35.93H699.16z M634.72,316.12v24.14h60.34l-15.72,35.07h-44.62v58.2h-39.93
		V280.19h104.32v35.93H634.72z M347.27,280.19h-34.92l7.4,17.92l-60.81,135.42h41.02l5.33-13.11l59.23-11.25l10.61,24.36h40.97
		L347.27,280.19z M320.4,384.12h-0.2l16.44-40.08l14.68,34.18L320.4,384.12z M190.04,316.12v24.14h60.37l-15.94,35.07h-44.42v22.21
		h64.46l-16.24,35.98h-88.23V332.16l7.21-16.04h-51.11v153.02l-40.28-7.4V316.12H16.12L0,280.19h254.38v35.93H190.04z
		 M930.73,360.27v73.25l-34.13-6c-12.78,7.26-25.54,10.17-43.24,10.17c-45.04,0-76.98-32.58-76.98-78.98s31.94-78.98,76.98-78.98
		c38.55,0,64,21.05,73.27,53.14H885.3c-6.92-9.86-18.37-15.53-30.41-15.08c-22.53,0-37.61,16.17-37.61,40.89
		c0,24.73,15.08,40.87,37.61,40.87c16.61,0,36.5-9.87,36.5-39.36h39.36L930.73,360.27z M561.52,567.91
		c-6.91,34.55-32.58,57.28-74.88,56.99c-45.14-0.32-77.1-32.63-77.1-78.98c0-46.35,31.96-78.98,77.1-78.98
		c38.97,0,64.59,21.47,73.67,54.1h-41.12c-6.49-10.09-17.4-15.99-31.02-15.99c-22.58,0-37.69,16.21-37.69,40.97
		s15.1,40.97,37.69,40.97c15.05,0,26.7-7.16,32.85-18.88L561.52,567.91z M290.48,469.14l-16.09,35.93h-38.35V622.5h-40.28V505.07
		h-45.73v-35.93H290.48z M1014.1,528.07c44.42,11.11,64.93,19.28,64.93,47.78s-19.2,49.04-68.24,49.04
		c-49.51,0-68.56-25.47-68.56-56.99h38.8c0,14.98,9.87,23.82,29.76,23.82c15.28,0,26.19-5.5,26.19-13.57
		c0-7.4-12.22-10.79-29.62-15.47c-41.78-11.2-60.84-21.15-60.84-49.36c0-22.53,15.03-46.65,64.34-46.65s63.33,24.11,63.33,50.17
		h-38.62c0-9.65-5.8-17.28-24.68-17.28s-22.95,7.16-22.95,13.15c0,7.65,8.96,10.91,26.26,15.23 M928.39,567.91
		c-6.91,34.55-32.6,57.28-74.88,56.99c-45.14-0.32-77.13-32.63-77.13-78.98c0-46.35,32.08-78.98,77.13-78.98
		c38.97,0,64.56,21.47,73.67,54.1h-41.17c-6.52-10.09-17.28-15.99-31.05-15.99c-22.56,0-37.66,16.21-37.66,40.97
		s15.1,40.97,37.66,40.97c15.05,0,26.73-7.16,32.85-18.88L928.39,567.91z M718.19,280.19h40.08v153.34h-40.08V280.19z
		 M718.19,469.16h40.08V622.5h-40.08V469.16z"/>
</g>
<g id="Calque_7">
	<path class="st1" d="M1164.58,217.45c-84.71,0-169.42,0-254.14,0c-13.57-32-27.14-64-40.7-96c-4.27,0-8.55,0-12.82,0
		c0-0.33,0-0.67,0-1c4.81,0,9.61,0,14.42,0c13.53,32,27.06,64,40.59,96c84.21,0,168.43,0,252.64,0
		C1164.58,216.78,1164.58,217.12,1164.58,217.45z"/>
	<polygon class="st1" points="1179,234.45 1169.39,234.45 1161.37,208.45 884.96,207.95 844.1,112.45 781.61,112.45 776,105.95 
		851.31,105.95 892.17,201.45 1169.39,202.45 	"/>
	<path class="st1" d="M68.92,217.05c84.71,0,169.42,0,254.14,0c13.57-32,27.14-64,40.7-96c4.27,0,8.55,0,12.82,0c0-0.33,0-0.67,0-1
		c-4.81,0-9.61,0-14.42,0c-13.53,32-27.06,64-40.59,96c-84.21,0-168.43,0-252.65,0C68.92,216.38,68.92,216.72,68.92,217.05z"/>
	<polygon class="st1" points="54.5,234.05 64.11,234.05 72.13,208.05 348.54,207.55 389.4,112.05 451.89,112.05 457.5,105.55 
		382.19,105.55 341.33,201.05 64.11,202.05 	"/>
</g>
<g id="Calque_4">
	<path class="st2" d="M433,696c123.01,0,246.02,0,369.03,0"/>
</g>
<g id="Calque_2">
	<path class="st3" d="M572.05,25.91L617.28,116c0,0-78.59-37.94-85.57-53.48C524.72,46.98,531.86,12.59,572.05,25.91z"/>
	<path class="st4" d="M571.97,25.95L617.28,116c0,0,16.45-85.71,8.14-100.58S585.26-14.25,571.97,25.95z"/>
	<path class="st3" d="M662.51,206.09L617.28,116c0,0,78.59,37.94,85.57,53.48S702.69,219.41,662.51,206.09z"/>
	<path class="st4" d="M662.59,206.05L617.28,116c0,0-16.45,85.71-8.14,100.58S649.3,246.25,662.59,206.05z"/>
	<path class="st3" d="M707.37,70.77L617.28,116c0,0,37.94-78.6,53.48-85.58C686.3,23.44,720.7,30.57,707.37,70.77z"/>
	<path class="st4" d="M707.34,70.69L617.28,116c0,0,85.71,16.45,100.59,8.14C732.74,115.84,747.54,83.98,707.34,70.69z"/>
	<path class="st3" d="M527.18,161.24l90.1-45.24c0,0-37.94,78.6-53.48,85.58C548.25,208.57,513.85,201.43,527.18,161.24z"/>
	<path class="st4" d="M527.22,161.31L617.28,116c0,0-85.71-16.45-100.59-8.14C501.81,116.16,487.02,148.03,527.22,161.31z"/>
</g>
<g id="Calque_6">
</g>
</svg>
